<?xml version="1.0" encoding="utf-8"?>
<svg viewBox="368.1476 14.8005 289.7143 481.8829" width="289.7143" height="481.8829" xmlns="http://www.w3.org/2000/svg" fill="#fff">
  <g transform="matrix(1.224514007568, -0.007244000211, 0.097740001976, 1.700619935989, 75.310624917942, -108.390326076576)" style="transform-origin: 436.187px 367.367px;">
    <g style="transform-origin: 425.757px 624.647px;" transform="matrix(1.175569, 0.220076, -0.135911, -0.978395, 10.430285, -257.280304)">
      <g>
        <path d="M490.6,748.051c10.038-48.069,1.844-100.117-22.87-143.241c-12.333-21.566-28.818-40.816-48.156-56.657&#10;&#9;&#9;&#9;&#9;c-19.338-15.843-41.563-28.31-65.404-36.337c-0.074-0.025-0.113-0.104-0.089-0.178c0.024-0.072,0.102-0.111,0.174-0.09&#10;&#9;&#9;&#9;&#9;c24.12,7.266,46.91,19.072,67.002,34.48c20.091,15.405,37.528,34.443,50.891,56.155c26.754,43.414,37.172,96.893,28.272,147.755&#10;&#9;&#9;&#9;&#9;c-0.476,2.72-3.067,4.54-5.788,4.064s-4.54-3.067-4.064-5.788C490.577,748.167,490.591,748.097,490.6,748.051z"/>
        <g>
          <polygon points="378.912 499.738 381.659 502.459 356.309 512.677 370.226 538.787 367.114 540.315 350.855 510.081"/>
        </g>
      </g>
    </g>
  </g>
</svg>