<?xml version="1.0" encoding="utf-8"?>
<svg viewBox="90.2931 0 100 49.8338" width="115" height="115" xmlns="http://www.w3.org/2000/svg">
  <g id="SvgjsG1824" featurekey="tpnldm-0" transform="matrix(3.3997230529785156, 0, 0, 3.3997230529785156, 87.37103271484375, -18.2935733795166)" fill="#111111">
    <path d="M15.088 13.6328 l-1.4551 6.3574 l-4.541 0 l-1.9336 -6.3574 l-0.22461 0 l-1.4746 6.3574 l-4.5996 0 l1.4746 -6.3574 l-0.88867 0 l1.8848 -8.1836 l5.3613 0 l1.582 5.1367 l1.2012 -5.1367 l4.6191 0 l-1.8945 8.1836 l0.88867 0 z M25.459109375 13.3594 l-1.4844 6.6797 l-4.9512 0 l1.5234 -6.6797 l-0.88867 0 l0.98633 -4.2773 l-3.9063 0 l0.85938 -3.7012 l12.676 0 l-0.83008 3.7012 l-3.8965 0 l-0.95703 4.2773 l0.86914 0 z"/>
  </g>
</svg>